<svg width="86" height="44" viewBox="0 0 86 44" fill="none" xmlns="http://www.w3.org/2000/svg">
<path d="M77.7236 0.796997H8.7764C4.20547 0.796997 0.5 4.21602 0.5 8.43361V36.1916C0.5 40.4092 4.20547 43.8282 8.7764 43.8282H77.7236C82.2945 43.8282 86 40.4092 86 36.1916V8.43361C86 4.21602 82.2945 0.796997 77.7236 0.796997Z" fill="#62D0B6"/>
<path d="M21.6131 12.8699C22.1532 13.3069 22.5151 13.9143 22.6344 14.5842H20.5917L21.6131 12.8699ZM21.5547 12.562L20.224 14.7895H22.8854C22.8385 14.3489 22.6958 13.9228 22.4665 13.539C22.2372 13.1551 21.9265 12.8222 21.5547 12.562ZM18.3753 17.8945C18.7916 18.0827 19.2462 18.1788 19.706 18.1757C20.1655 18.1762 20.6196 18.0802 21.0367 17.8945L19.706 15.667L18.3753 17.8945ZM20.224 15.3815L21.5547 17.609C21.9275 17.3497 22.2389 17.017 22.4683 16.633C22.6977 16.249 22.8399 15.8224 22.8854 15.3815H20.224ZM21.0367 12.2695C20.6204 12.0814 20.1658 11.9854 19.706 11.9882C19.2466 11.9879 18.7925 12.0839 18.3753 12.2695L19.706 14.497L21.0367 12.2695ZM19.1399 15.3421H16.4785C16.5201 15.784 16.6606 16.212 16.8903 16.5966C17.1201 16.9811 17.4335 17.3131 17.8092 17.5696L19.1399 15.3421ZM19.1399 14.7599L17.8092 12.5324C17.4363 12.7917 17.1249 13.1243 16.8955 13.5084C16.666 13.8924 16.5239 14.319 16.4785 14.7599H19.1399ZM69.7309 9.28823C68.4673 9.33866 67.2763 9.87066 66.4196 10.7673C65.5629 11.6639 65.1107 12.8516 65.1625 14.0695C65.1625 16.491 65.1391 19.7015 65.1391 19.7015C65.187 20.431 65.0831 21.1624 64.8334 21.8527C64.5838 22.5429 64.1935 23.1781 63.6855 23.7209C63.1775 24.2637 62.562 24.7032 61.8753 25.0134C61.1886 25.3237 60.4444 25.4985 59.6865 25.5276C55.9892 25.5276 54.2339 22.6153 54.2339 19.7015V7.27307L50.5016 8.71307L50.4768 20.1445C50.4768 24.4392 54.1391 28.0842 59.6865 28.0842C65.234 28.0842 68.8949 24.4392 68.8949 20.1445V14.8809C68.8949 11.7618 70.208 11.3399 70.208 11.3399L69.7309 9.28823ZM44.9658 15.0974V19.6889C44.9658 23.0245 42.9055 23.8584 41.0802 23.8584C40.3788 23.8347 39.681 23.7504 38.9952 23.6067L38.4407 25.6626C39.5938 26.1587 40.8544 26.3782 42.1147 26.3024C44.6813 26.3024 48.6967 25.2168 48.6967 20.2134V13.6574L44.9658 15.0974ZM47.6155 26.841L46.2264 28.8857L47.6155 30.9417L49.0177 28.8857L47.6155 26.841ZM31.8106 34.9101L30.4172 36.9618L31.8062 39.0065L33.2084 36.9618L31.8106 34.9101ZM35.8961 34.9101L34.5026 36.9618L35.8917 39.0065L37.2808 36.9618L35.8961 34.9101Z" fill="#1D1F1F"/>
<path d="M61.1409 4.14246L59.7387 6.19839L61.1409 8.24308L62.5299 6.19839L61.1409 4.14246ZM65.2147 4.14246L63.8256 6.19839L65.2147 8.24308L66.6154 6.19839L65.2147 4.14246ZM39.7667 24.7848C39.7667 28.2343 37.6933 30.7023 33.8545 30.7023C30.0156 30.7023 27.9437 28.2343 27.9437 24.7848L27.9203 21.0948L24.1865 22.5348V24.4417C24.1865 30.6784 28.9563 33.1 33.8545 33.1C38.7526 33.1 43.5224 30.6784 43.5224 24.4417L39.7652 24.7848H39.7667Z" fill="#1D1F1F"/>
</svg>
