<svg width="16" height="16" viewBox="0 0 16 16" fill="none" xmlns="http://www.w3.org/2000/svg">
<path d="M4.36662 15.1666C5.11996 15.1666 5.91329 14.9866 6.73329 14.64C7.53329 14.3 8.33996 13.8333 9.12663 13.2666C9.90663 12.6933 10.66 12.0533 11.3733 11.3533C12.08 10.64 12.72 9.88665 13.2866 9.11331C13.86 8.31331 14.32 7.51331 14.6466 6.73998C14.9933 5.91331 15.1666 5.11331 15.1666 4.35998C15.1666 3.83998 15.0733 3.34665 14.8933 2.88665C14.7066 2.41331 14.4066 1.97331 14 1.59331C13.4866 1.08665 12.9 0.833313 12.2733 0.833313C12.0133 0.833313 11.7466 0.893313 11.52 0.99998C11.26 1.11998 11.04 1.29998 10.88 1.53998L9.33329 3.71998C9.19329 3.91331 9.08663 4.09998 9.01329 4.28665C8.92663 4.48665 8.87996 4.68665 8.87996 4.87998C8.87996 5.13331 8.95329 5.37998 9.09329 5.61331C9.19329 5.79331 9.34663 5.98665 9.53996 6.17998L9.99329 6.65331C9.98663 6.67331 9.97996 6.68665 9.97329 6.69998C9.89329 6.83998 9.73329 7.07998 9.42663 7.43998C9.09996 7.81331 8.79329 8.15331 8.48663 8.46665C8.09329 8.85331 7.76663 9.15998 7.45996 9.41331C7.07996 9.73331 6.83329 9.89331 6.68663 9.96665L6.69996 9.99998L6.21329 9.51998C6.00663 9.31331 5.80663 9.15998 5.61329 9.05998C5.24663 8.83331 4.77996 8.79331 4.31329 8.98665C4.13996 9.05998 3.95329 9.15998 3.75329 9.29998L1.53996 10.8733C1.29329 11.04 1.11329 11.2533 1.00663 11.5066C0.906626 11.76 0.85996 11.9933 0.85996 12.2266C0.85996 12.5466 0.933292 12.8666 1.07329 13.1666C1.21329 13.4666 1.38663 13.7266 1.60663 13.9666C1.98663 14.3866 2.39996 14.6866 2.87996 14.88C3.33996 15.0666 3.83996 15.1666 4.36662 15.1666ZM12.2733 1.83331C12.64 1.83331 12.98 1.99331 13.3066 2.31331C13.6133 2.59998 13.8266 2.91331 13.96 3.25331C14.1 3.59998 14.1666 3.96665 14.1666 4.35998C14.1666 4.97998 14.02 5.65331 13.7266 6.34665C13.4266 7.05331 13.0066 7.78665 12.4733 8.51998C11.94 9.25331 11.3333 9.96665 10.6666 10.64C9.99996 11.3 9.27996 11.9133 8.53996 12.4533C7.81996 12.98 7.07996 13.4066 6.34663 13.7133C5.20663 14.2 4.13996 14.3133 3.25996 13.9466C2.91996 13.8066 2.61996 13.5933 2.34663 13.2866C2.19329 13.12 2.07329 12.94 1.97329 12.7266C1.89329 12.56 1.85329 12.3866 1.85329 12.2133C1.85329 12.1066 1.87329 12 1.92663 11.88C1.94662 11.84 1.98663 11.7666 2.11329 11.68L4.32663 10.1066C4.45996 10.0133 4.57996 9.94665 4.69329 9.89998C4.83996 9.83998 4.89996 9.77998 5.12663 9.91998C5.25996 9.98665 5.37996 10.0866 5.51329 10.22L6.01996 10.72C6.27996 10.9733 6.67996 11.0333 6.98663 10.92L7.16663 10.84C7.43996 10.6933 7.75996 10.4666 8.11329 10.1666C8.43329 9.89331 8.77996 9.57331 9.19996 9.15998C9.52663 8.82665 9.85329 8.47331 10.1933 8.07998C10.5066 7.71331 10.7333 7.39998 10.8733 7.13998L10.9533 6.93998C10.9933 6.78665 11.0066 6.69998 11.0066 6.60665C11.0066 6.36665 10.92 6.15331 10.7533 5.98665L10.2533 5.46665C10.12 5.33331 10.02 5.20665 9.95329 5.09331C9.89996 5.00665 9.87996 4.93331 9.87996 4.86665C9.87996 4.81331 9.89996 4.73331 9.93329 4.65331C9.97996 4.54665 10.0533 4.42665 10.1466 4.29998L11.6933 2.11331C11.76 2.01998 11.84 1.95331 11.94 1.90665C12.0466 1.85998 12.16 1.83331 12.2733 1.83331ZM6.69996 10.0066L6.80663 10.46L6.62663 9.99331C6.65996 9.98665 6.68663 9.99331 6.69996 10.0066Z" fill="#62D0B6"/>
<path d="M3.66667 6.50002C3.94 6.50002 4.16667 6.27335 4.16667 6.00002C4.16667 5.76002 4.40667 5.26002 4.80667 4.83335C5.2 4.41335 5.63333 4.16669 6 4.16669C6.27333 4.16669 6.5 3.94002 6.5 3.66669C6.5 3.39335 6.27333 3.16669 6 3.16669C5.35333 3.16669 4.67333 3.51335 4.08 4.14669C3.52667 4.74002 3.16667 5.46669 3.16667 6.00002C3.16667 6.27335 3.39333 6.50002 3.66667 6.50002Z" fill="#62D0B6"/>
<path d="M1.33333 6.49998C1.60667 6.49998 1.83333 6.27331 1.83333 5.99998C1.83333 3.69998 3.7 1.83331 6 1.83331C6.27333 1.83331 6.5 1.60665 6.5 1.33331C6.5 1.05998 6.27333 0.833313 6 0.833313C3.15333 0.833313 0.833333 3.15331 0.833333 5.99998C0.833333 6.27331 1.06 6.49998 1.33333 6.49998Z" fill="#62D0B6"/>
</svg>
