<svg width="40" height="41" viewBox="0 0 40 41" fill="none" xmlns="http://www.w3.org/2000/svg">
<path d="M30.21 24.2816C27.4298 24.2816 25.168 26.5434 25.168 29.3236C25.168 32.1039 27.4298 34.3657 30.21 34.3657C32.9907 34.3657 35.252 32.1039 35.252 29.3236C35.252 26.5434 32.9902 24.2816 30.21 24.2816ZM30.21 31.8447C28.8197 31.8447 27.689 30.714 27.689 29.3236C27.689 27.9333 28.8197 26.8026 30.21 26.8026C31.6003 26.8026 32.731 27.9333 32.731 29.3236C32.731 30.714 31.6003 31.8447 30.21 31.8447Z" fill="#62D0B6"/>
<path d="M12.9834 24.2816C10.2032 24.2816 7.94141 26.5434 7.94141 29.3236C7.94141 32.1039 10.2032 34.3657 12.9834 34.3657C15.7637 34.3657 18.0255 32.1039 18.0255 29.3236C18.0255 26.5434 15.7637 24.2816 12.9834 24.2816ZM12.9834 31.8447C11.5931 31.8447 10.4624 30.714 10.4624 29.3236C10.4624 27.9333 11.5931 26.8026 12.9834 26.8026C14.3734 26.8026 15.5045 27.9333 15.5045 29.3236C15.5045 30.714 14.3737 31.8447 12.9834 31.8447Z" fill="#62D0B6"/>
<path d="M33.605 9.84954C33.3907 9.42391 32.955 9.1554 32.4785 9.1554H25.8398V11.6764H31.7012L35.1335 18.5033L37.3865 17.3705L33.605 9.84954Z" fill="#62D0B6"/>
<path d="M26.4284 28.1052H16.8906V30.6262H26.4284V28.1052Z" fill="#62D0B6"/>
<path d="M9.20047 28.1051H4.83078C4.13453 28.1051 3.57031 28.6694 3.57031 29.3656C3.57031 30.0618 4.13461 30.626 4.83078 30.626H9.20055C9.8968 30.626 10.461 30.0617 10.461 29.3656C10.461 28.6693 9.89672 28.1051 9.20047 28.1051Z" fill="#62D0B6"/>
<path d="M39.7341 20.3991L37.2548 17.2058C37.0166 16.8982 36.6489 16.7184 36.2594 16.7184H27.0997V7.89487C27.0997 7.19862 26.5354 6.6344 25.8392 6.6344H4.83078C4.13453 6.6344 3.57031 7.1987 3.57031 7.89487C3.57031 8.59104 4.13461 9.15534 4.83078 9.15534H24.5787V17.9789C24.5787 18.6751 25.143 19.2393 25.8391 19.2393H35.6421L37.4778 21.604V28.1049H33.9904C33.2941 28.1049 32.7299 28.6692 32.7299 29.3653C32.7299 30.0616 33.2942 30.6258 33.9904 30.6258H38.7383C39.4345 30.6258 39.9988 30.0615 39.9988 29.3653V21.1722C39.9988 20.8924 39.9055 20.6201 39.7341 20.3991Z" fill="#62D0B6"/>
<path d="M9.11742 21.7186H3.31906C2.62281 21.7186 2.05859 22.2829 2.05859 22.9791C2.05859 23.6753 2.62289 24.2396 3.31906 24.2396H9.11734C9.81359 24.2396 10.3778 23.6753 10.3778 22.9791C10.3779 22.2829 9.81359 21.7186 9.11742 21.7186Z" fill="#62D0B6"/>
<path d="M12.0168 16.7606H1.26047C0.564297 16.7606 0 17.3249 0 18.0212C0 18.7174 0.564297 19.2816 1.26047 19.2816H12.0168C12.713 19.2816 13.2773 18.7173 13.2773 18.0212C13.2773 17.325 12.713 16.7606 12.0168 16.7606Z" fill="#62D0B6"/>
<path d="M14.0754 11.8026H3.31906C2.62281 11.8026 2.05859 12.3669 2.05859 13.0631C2.05859 13.7593 2.62289 14.3235 3.31906 14.3235H14.0754C14.7716 14.3235 15.3359 13.7593 15.3359 13.0631C15.3359 12.3669 14.7716 11.8026 14.0754 11.8026Z" fill="#62D0B6"/>
</svg>
