<svg width="41" height="41" viewBox="0 0 41 41" fill="none" xmlns="http://www.w3.org/2000/svg">
<g clip-path="url(#clip0_2078_893)">
<path d="M26.583 9.56262H14.083C11.4983 9.56262 9.39551 11.6654 9.39551 14.2501V26.7501C9.39551 29.3348 11.4983 31.4376 14.083 31.4376H26.583C29.1677 31.4376 31.2705 29.3348 31.2705 26.7501V14.2501C31.2705 11.6654 29.1677 9.56262 26.583 9.56262ZM28.1455 26.7501C28.1455 27.6117 27.4446 28.3126 26.583 28.3126H14.083C13.2214 28.3126 12.5205 27.6117 12.5205 26.7501V14.2501C12.5205 13.3886 13.2214 12.6876 14.083 12.6876H18.7705V17.3751C18.7705 18.2381 19.47 18.9376 20.333 18.9376C21.196 18.9376 21.8955 18.2381 21.8955 17.3751V12.6876H26.583C27.4446 12.6876 28.1455 13.3886 28.1455 14.2501V26.7501Z" fill="#62D0B6"/>
<path d="M35.958 3.31262C35.095 3.31262 34.3955 4.01215 34.3955 4.87512V5.88817C33.1018 4.67676 31.6392 3.63973 30.0511 2.81575C27.1311 1.3009 23.7706 0.500122 20.333 0.500122C9.11801 0.500122 0.333008 9.2852 0.333008 20.5001C0.333008 21.6348 0.427461 22.7732 0.613789 23.8837C0.741992 24.6472 1.40355 25.1879 2.15293 25.1879C2.23879 25.1879 2.32582 25.1807 2.41332 25.1661C3.26441 25.0232 3.83848 24.2176 3.69574 23.3665C3.53793 22.4265 3.45801 21.4621 3.45801 20.5001C3.45801 11.0375 10.8704 3.62512 20.333 3.62512C26.321 3.62512 31.5418 6.31215 34.6569 10.9972C35.0383 11.5709 35.7505 11.8269 36.4099 11.6278C37.0693 11.4286 37.5205 10.8209 37.5205 10.132V4.87512C37.5205 4.01215 36.821 3.31262 35.958 3.31262Z" fill="#62D0B6"/>
<path d="M20.333 40.5001C16.8954 40.5001 13.5349 39.6993 10.615 38.1844C9.02684 37.3604 7.56426 36.3235 6.27051 35.1121V36.1251C6.27051 36.9881 5.57098 37.6876 4.70801 37.6876C3.84504 37.6876 3.14551 36.9881 3.14551 36.1251V30.8683C3.14551 30.1793 3.59668 29.5718 4.25613 29.3725C4.91543 29.1733 5.6277 29.4293 6.0091 30.0031C9.12418 34.6881 14.345 37.3751 20.333 37.3751C29.7956 37.3751 37.208 29.9628 37.208 20.5001C37.208 19.5382 37.1281 18.5737 36.9703 17.6337C36.8275 16.7826 37.4016 15.977 38.2527 15.8342C39.104 15.6913 39.9094 16.2655 40.0522 17.1166C40.2386 18.227 40.333 19.3654 40.333 20.5001C40.333 31.715 31.548 40.5001 20.333 40.5001Z" fill="#62D0B6"/>
</g>
<defs>
<clipPath id="clip0_2078_893">
<rect width="40" height="40" fill="white" transform="translate(0.333008 0.500122)"/>
</clipPath>
</defs>
</svg>
