<svg width="41" height="41" viewBox="0 0 41 41" fill="none" xmlns="http://www.w3.org/2000/svg">
<g clip-path="url(#clip0_2078_1657)">
<path d="M35.979 3.31262H11.604C9.01932 3.31262 6.9165 5.41543 6.9165 8.00012C6.9165 8.86309 7.61603 9.56262 8.479 9.56262C9.34197 9.56262 10.0415 8.86309 10.0415 8.00012C10.0415 7.13856 10.7424 6.43762 11.604 6.43762H35.979C36.8406 6.43762 37.5415 7.13856 37.5415 8.00012V23.6251C37.5415 24.4867 36.8406 25.1876 35.979 25.1876H34.4165V17.3751C34.4165 14.7904 32.3137 12.6876 29.729 12.6876H5.354C2.76932 12.6876 0.666504 14.7904 0.666504 17.3751V33.0001C0.666504 35.5848 2.76932 37.6876 5.354 37.6876H29.729C32.3137 37.6876 34.4165 35.5848 34.4165 33.0001V28.3126H35.979C38.5637 28.3126 40.6665 26.2098 40.6665 23.6251V8.00012C40.6665 5.41543 38.5637 3.31262 35.979 3.31262ZM31.2915 33.0001C31.2915 33.8617 30.5906 34.5626 29.729 34.5626H5.354C4.49244 34.5626 3.7915 33.8617 3.7915 33.0001V17.3751C3.7915 16.5136 4.49244 15.8126 5.354 15.8126H29.729C30.5906 15.8126 31.2915 16.5136 31.2915 17.3751V18.9376H8.479C7.61603 18.9376 6.9165 19.6372 6.9165 20.5001C6.9165 21.3631 7.61603 22.0626 8.479 22.0626H31.2915V33.0001Z" fill="#62D0B6"/>
<path d="M26.604 31.4376H20.354C19.491 31.4376 18.7915 30.7381 18.7915 29.8751C18.7915 29.0122 19.491 28.3126 20.354 28.3126H26.604C27.467 28.3126 28.1665 29.0122 28.1665 29.8751C28.1665 30.7381 27.467 31.4376 26.604 31.4376Z" fill="#62D0B6"/>
</g>
<defs>
<clipPath id="clip0_2078_1657">
<rect width="40" height="40" fill="white" transform="translate(0.666504 0.500122)"/>
</clipPath>
</defs>
</svg>
