<svg width="13" height="14" viewBox="0 0 13 14" fill="none" xmlns="http://www.w3.org/2000/svg">
<g clip-path="url(#clip0_2136_1942)">
<path d="M12.9813 5.57092C12.9365 5.43302 12.8174 5.33252 12.6739 5.3117L8.64387 4.72607L6.84152 1.07423C6.77739 0.944229 6.64498 0.861938 6.50002 0.861938C6.35504 0.861938 6.22266 0.944229 6.15849 1.07423L4.35607 4.72607L0.326087 5.3117C0.182656 5.33252 0.0634476 5.43302 0.0186587 5.57089C-0.0261556 5.70879 0.0112193 5.86014 0.115041 5.96132L3.03109 8.80389L2.34281 12.8177C2.31828 12.9606 2.37703 13.105 2.49431 13.1902C2.56066 13.2384 2.63924 13.2629 2.7182 13.2629C2.77884 13.2629 2.83967 13.2485 2.89538 13.2192L6.5 11.3241L10.1045 13.2192C10.2328 13.2866 10.3883 13.2754 10.5056 13.1902C10.6228 13.105 10.6816 12.9605 10.6571 12.8177L9.9686 8.80389L12.885 5.96129C12.9888 5.86014 13.0262 5.70879 12.9813 5.57092Z" fill="#FFC62A"/>
</g>
<defs>
<clipPath id="clip0_2136_1942">
<rect width="13" height="13" fill="white" transform="translate(0 0.562622)"/>
</clipPath>
</defs>
</svg>
