<svg width="16" height="17" viewBox="0 0 16 17" fill="none" xmlns="http://www.w3.org/2000/svg">
<g clip-path="url(#clip0_2136_1889)">
<path d="M11.5374 5.05681C8.68152 3.31928 10.0208 0.866872 10.0782 0.764935C10.1616 0.619872 10.1614 0.441403 10.0776 0.296591C9.99377 0.151778 9.83915 0.0626221 9.67183 0.0626221C8.20174 0.0626221 7.05055 0.48031 6.25027 1.30412C4.8828 2.71178 4.94624 4.90262 4.9733 5.83818C4.9763 5.94181 4.9789 6.03137 4.9789 6.09787C4.9789 6.7925 5.09034 7.43378 5.18868 7.99956C5.25205 8.36415 5.30677 8.67903 5.31649 8.92659C5.3269 9.19159 5.27852 9.25234 5.27646 9.25478C5.26955 9.26297 5.21205 9.29356 5.05659 9.29356C4.87927 9.29356 4.74855 9.23562 4.63274 9.10578C4.18037 8.59853 4.14909 7.21347 4.23559 6.45993C4.25105 6.32706 4.20902 6.19393 4.12005 6.09406C4.03112 5.99418 3.90374 5.93706 3.76999 5.93706C2.55296 5.93706 1.64355 7.92731 1.64355 9.70681C1.64355 10.5433 1.8118 11.3628 2.14365 12.1424C2.46446 12.8961 2.92193 13.5764 3.5034 14.1642C4.7144 15.3884 6.31105 16.0626 7.9993 16.0626C9.69434 16.0626 11.2906 15.3979 12.494 14.1911C13.6943 12.9873 14.3554 11.3947 14.3554 9.70675C14.3553 7.55293 12.6701 5.7459 11.5374 5.05681ZM7.9993 15.1251C5.06234 15.1251 2.58109 12.6438 2.58109 9.70675C2.58109 8.99247 2.75152 8.24268 3.04868 7.64972C3.11809 7.51118 3.1893 7.39234 3.25959 7.29222C3.26743 8.06556 3.38993 9.11978 3.93227 9.72884C4.22484 10.0574 4.61362 10.231 5.05662 10.231C5.47046 10.231 5.78584 10.1056 5.9939 9.85822C6.3829 9.39578 6.26349 8.70878 6.11237 7.839C6.02052 7.31056 5.91643 6.71159 5.91643 6.09784C5.91643 6.01775 5.91365 5.92197 5.91046 5.811C5.8848 4.92481 5.8314 3.08078 6.92274 1.95737C7.41265 1.45303 8.09665 1.14609 8.96196 1.04106C8.86427 1.36543 8.78005 1.77722 8.7768 2.23828C8.76962 3.25415 9.15818 4.70668 11.0502 5.85775C11.9656 6.41465 13.4179 7.95206 13.4179 9.70678C13.4178 12.6945 10.9871 15.1251 7.9993 15.1251Z" fill="#F55157"/>
</g>
<defs>
<clipPath id="clip0_2136_1889">
<rect width="16" height="16" fill="white" transform="translate(0 0.0626221)"/>
</clipPath>
</defs>
</svg>
