<svg width="17" height="16" viewBox="0 0 17 16" fill="none" xmlns="http://www.w3.org/2000/svg">
<g clip-path="url(#clip0_2048_3126)">
<path d="M5.16667 7.3335V4.66683C5.16667 3.78277 5.51786 2.93493 6.14298 2.30981C6.7681 1.68469 7.61595 1.3335 8.5 1.3335C9.38406 1.3335 10.2319 1.68469 10.857 2.30981C11.4821 2.93493 11.8333 3.78277 11.8333 4.66683V7.3335M3.83333 7.3335H13.1667C13.903 7.3335 14.5 7.93045 14.5 8.66683V13.3335C14.5 14.0699 13.903 14.6668 13.1667 14.6668H3.83333C3.09695 14.6668 2.5 14.0699 2.5 13.3335V8.66683C2.5 7.93045 3.09695 7.3335 3.83333 7.3335Z" stroke="#1E1E1E" stroke-linecap="round" stroke-linejoin="round"/>
</g>
<defs>
<clipPath id="clip0_2048_3126">
<rect width="16" height="16" fill="white" transform="translate(0.5 0.00012207)"/>
</clipPath>
</defs>
</svg>
