<svg width="17" height="16" viewBox="0 0 17 16" fill="none" xmlns="http://www.w3.org/2000/svg">
<g clip-path="url(#clip0_2048_3122)">
<path d="M12.46 11.9601C11.3204 12.8287 9.93276 13.31 8.50002 13.3334C3.83335 13.3334 1.16669 8.00008 1.16669 8.00008C1.99595 6.45468 3.14611 5.10449 4.54002 4.04008M7.10002 2.82675C7.55891 2.71933 8.02873 2.66564 8.50002 2.66675C13.1667 2.66675 15.8334 8.00008 15.8334 8.00008C15.4287 8.75715 14.9461 9.4699 14.3934 10.1267M9.91335 9.41341C9.73025 9.60991 9.50945 9.76752 9.26412 9.87683C9.01879 9.98614 8.75395 10.0449 8.48541 10.0497C8.21687 10.0544 7.95013 10.005 7.70109 9.90441C7.45206 9.80382 7.22583 9.6541 7.03592 9.46418C6.846 9.27427 6.69628 9.04804 6.59569 8.79901C6.4951 8.54997 6.4457 8.28323 6.45044 8.01469C6.45518 7.74615 6.51396 7.48131 6.62327 7.23598C6.73258 6.99065 6.89019 6.76985 7.08669 6.58675M1.16669 0.666748L15.8334 15.3334" stroke="#1E1E1E" stroke-linecap="round" stroke-linejoin="round"/>
</g>
<defs>
<clipPath id="clip0_2048_3122">
<rect width="16" height="16" fill="white" transform="translate(0.5 0.00012207)"/>
</clipPath>
</defs>
</svg>
