<svg width="16" height="16" viewBox="0 0 16 16" fill="none" xmlns="http://www.w3.org/2000/svg">
<path d="M11.7799 3.36795C11.6118 3.36795 11.4474 3.4178 11.3077 3.5112C11.1679 3.6046 11.0589 3.73735 10.9946 3.89267C10.9303 4.04798 10.9134 4.21889 10.9462 4.38377C10.979 4.54866 11.06 4.70011 11.1789 4.81899C11.2977 4.93786 11.4492 5.01882 11.6141 5.05161C11.779 5.08441 11.9499 5.06758 12.1052 5.00324C12.2605 4.93891 12.3932 4.82996 12.4866 4.69018C12.58 4.5504 12.6299 4.38606 12.6299 4.21795C12.6299 3.99251 12.5403 3.77631 12.3809 3.61691C12.2215 3.4575 12.0053 3.36795 11.7799 3.36795ZM15.0382 5.08211C15.0245 4.49441 14.9144 3.91294 14.7124 3.36086C14.5323 2.8885 14.252 2.46077 13.8907 2.10711C13.54 1.74404 13.1112 1.46549 12.637 1.29253C12.0864 1.08439 11.5042 0.971805 10.9157 0.959614C10.1649 0.917114 9.92406 0.917114 7.9974 0.917114C6.07073 0.917114 5.8299 0.917114 5.07906 0.959614C4.49055 0.971805 3.90843 1.08439 3.35781 1.29253C2.88442 1.46724 2.45606 1.74555 2.10406 2.10711C1.74099 2.45787 1.46244 2.88659 1.28948 3.36086C1.08134 3.91148 0.968753 4.4936 0.956562 5.08211C0.914062 5.83295 0.914062 6.07378 0.914062 8.00045C0.914062 9.92711 0.914062 10.1679 0.956562 10.9188C0.968753 11.5073 1.08134 12.0894 1.28948 12.64C1.46244 13.1143 1.74099 13.543 2.10406 13.8938C2.45606 14.2553 2.88442 14.5337 3.35781 14.7084C3.90843 14.9165 4.49055 15.0291 5.07906 15.0413C5.8299 15.0838 6.07073 15.0838 7.9974 15.0838C9.92406 15.0838 10.1649 15.0838 10.9157 15.0413C11.5042 15.0291 12.0864 14.9165 12.637 14.7084C13.1112 14.5354 13.54 14.2569 13.8907 13.8938C14.2536 13.5414 14.5341 13.1133 14.7124 12.64C14.9144 12.088 15.0245 11.5065 15.0382 10.9188C15.0382 10.1679 15.0807 9.92711 15.0807 8.00045C15.0807 6.07378 15.0807 5.83295 15.0382 5.08211ZM13.7632 10.8338C13.7581 11.2834 13.6766 11.7289 13.5224 12.1513C13.4093 12.4595 13.2276 12.7381 12.9911 12.9659C12.7614 13.2 12.4834 13.3813 12.1766 13.4971C11.7542 13.6514 11.3087 13.7328 10.8591 13.7379C10.1507 13.7734 9.88865 13.7804 8.02573 13.7804C6.16281 13.7804 5.90073 13.7804 5.1924 13.7379C4.72553 13.7467 4.26065 13.6748 3.81823 13.5254C3.52482 13.4037 3.25961 13.2228 3.03906 12.9942C2.80396 12.7666 2.62458 12.4879 2.5149 12.1796C2.34196 11.7512 2.24604 11.2956 2.23156 10.8338C2.23156 10.1254 2.18906 9.86336 2.18906 8.00045C2.18906 6.13753 2.18906 5.87545 2.23156 5.16711C2.23474 4.70745 2.31865 4.25191 2.47948 3.82128C2.60418 3.5223 2.79558 3.25579 3.03906 3.04211C3.25426 2.79857 3.52022 2.60514 3.81823 2.47545C4.24999 2.31965 4.70506 2.23821 5.16406 2.23461C5.8724 2.23461 6.13448 2.19211 7.9974 2.19211C9.86031 2.19211 10.1224 2.19211 10.8307 2.23461C11.2804 2.23977 11.7259 2.32121 12.1482 2.47545C12.4701 2.59491 12.759 2.78913 12.9911 3.04211C13.2233 3.2597 13.4046 3.52572 13.5224 3.82128C13.6798 4.25261 13.7613 4.70796 13.7632 5.16711C13.7986 5.87545 13.8057 6.13753 13.8057 8.00045C13.8057 9.86336 13.7986 10.1254 13.7632 10.8338ZM7.9974 4.3667C7.27901 4.3681 6.57716 4.5824 5.98053 4.98254C5.38389 5.38267 4.91925 5.95067 4.6453 6.61477C4.37136 7.27888 4.30041 8.00928 4.44142 8.71369C4.58242 9.4181 4.92906 10.0649 5.43753 10.5724C5.946 11.0799 6.59349 11.4253 7.29817 11.5649C8.00286 11.7045 8.73312 11.6321 9.39669 11.3569C10.0603 11.0817 10.6274 10.6159 11.0263 10.0185C11.4253 9.4211 11.6382 8.71883 11.6382 8.00045C11.6392 7.5224 11.5456 7.04888 11.3629 6.60712C11.1801 6.16537 10.9119 5.7641 10.5735 5.4264C10.2351 5.0887 9.83336 4.82122 9.39125 4.63936C8.94914 4.45749 8.47544 4.36483 7.9974 4.3667ZM7.9974 10.3592C7.53088 10.3592 7.07484 10.2209 6.68694 9.96168C6.29905 9.70249 5.99672 9.33411 5.81819 8.9031C5.63967 8.4721 5.59296 7.99783 5.68397 7.54028C5.77498 7.08273 5.99963 6.66244 6.32951 6.33256C6.65938 6.00268 7.07967 5.77803 7.53723 5.68702C7.99478 5.59601 8.46905 5.64272 8.90005 5.82125C9.33106 5.99977 9.69944 6.3021 9.95862 6.69C10.2178 7.07789 10.3561 7.53393 10.3561 8.00045C10.3561 8.3102 10.2951 8.61693 10.1766 8.9031C10.0581 9.18928 9.88431 9.44931 9.66528 9.66834C9.44625 9.88737 9.18623 10.0611 8.90005 10.1796C8.61387 10.2982 8.30715 10.3592 7.9974 10.3592Z" fill="#A5A5A5"/>
</svg>
