<svg width="16" height="17" viewBox="0 0 16 17" fill="none" xmlns="http://www.w3.org/2000/svg">
<path d="M8 0.5C3.58873 0.5 0 4.08873 0 8.5C0 12.9113 3.589 16.5 8 16.5C12.411 16.5 16 12.9113 16 8.5C16 4.08873 12.4113 0.5 8 0.5Z" fill="#008C56"/>
<path d="M11.5351 5.2013C11.7057 5.41094 11.8801 5.63393 12.0553 5.86681C12.0922 6.34164 12.102 6.77668 12.1394 7.25231C12.1341 7.45581 12.0716 7.7258 12.0123 7.75144C12.0123 7.75144 11.9218 7.80352 11.8612 7.74583C11.8171 7.72821 11.6411 7.45233 11.6411 7.45233C11.5511 7.36981 11.491 7.39331 11.4269 7.45233C11.2501 7.62299 11.1703 7.94265 11.0501 8.16271C11.0191 8.21185 10.9318 8.25378 10.8348 8.15897C10.633 7.88337 10.6933 7.51242 10.7048 7.45501L10.7021 7.46649C10.4829 7.71379 10.5798 8.12319 10.6295 8.21132C10.7019 8.35606 10.7603 8.44873 10.9011 8.52003C11.0293 8.61431 11.1291 8.55555 11.1842 8.48932C11.3131 8.35579 11.3148 8.01396 11.3754 7.94613C11.4178 7.82194 11.5241 7.84331 11.5762 7.89832C11.6264 7.9707 11.686 8.0177 11.7599 8.05695C11.8801 8.16298 12.0238 8.18247 12.1653 8.08553C12.262 8.03132 12.3248 7.96081 12.3814 7.82168C12.442 7.65931 12.4121 6.80766 12.3985 6.33389C12.4893 6.46182 12.579 6.59267 12.6682 6.72487C12.7075 7.14068 12.7251 7.55035 12.7123 7.94292C12.7029 8.0209 12.9847 7.70978 12.9828 7.56236C12.9815 7.43337 12.9831 7.3164 12.9828 7.20771C13.1198 7.42578 13.2511 7.64733 13.3767 7.87215C13.4542 7.83102 13.4277 7.39251 13.3786 7.33189C13.2477 7.11237 13.08 6.87496 12.9502 6.69122C12.9246 6.45941 12.8896 6.18594 12.8738 6.10235C12.849 5.97176 12.8242 5.77548 12.7868 5.62058C12.7766 5.55996 12.7454 5.36661 12.7553 5.34818C12.7705 5.30492 12.8282 5.34952 12.8567 5.29931C12.8992 5.25284 12.7093 4.76092 12.6129 4.62045C12.5782 4.55742 12.5154 4.57932 12.438 4.6816C12.3662 4.7489 12.3923 4.90273 12.4198 5.04881C12.4911 5.42136 12.555 5.80058 12.6054 6.179C12.512 6.04013 12.3982 5.87242 12.286 5.71058L12.2716 5.63687C12.2716 5.6302 12.2561 5.33216 12.243 5.26112C12.2406 5.23228 12.234 5.224 12.2641 5.22774C12.2962 5.25471 12.3005 5.25605 12.3205 5.26513C12.3528 5.271 12.3811 5.21626 12.3616 5.16578L12.0614 4.6111C12.0494 4.59935 12.0358 4.5868 12.0203 4.5844C12.0048 4.58199 11.9877 4.58974 11.9688 4.61778C11.9453 4.63823 11.9264 4.66352 11.9136 4.69191C11.9007 4.72029 11.8941 4.75112 11.8943 4.78229C11.9031 4.91341 11.9266 5.04774 11.9354 5.17914L11.945 5.23175C11.9344 5.21819 11.9233 5.20509 11.9116 5.19249C11.6558 4.92383 12.0291 5.14869 11.8628 4.94092C11.722 4.78656 11.6809 4.73742 11.5607 4.64448C11.5004 4.60549 11.4638 4.53098 11.444 4.65784C11.4363 4.76947 11.428 4.89846 11.4355 4.99246C11.4341 5.04507 11.4883 5.14335 11.5351 5.2013ZM5.2349 7.1754C5.23196 7.224 5.36896 7.28302 5.37724 7.39519C5.39674 7.44139 5.34787 7.58987 5.38873 7.60349C5.42611 7.61898 5.47819 7.50094 5.49769 7.39118C5.50863 7.33109 5.45068 7.12092 5.35241 7.08326C5.33707 7.07987 5.32135 7.07861 5.30567 7.07952C5.25813 7.08299 5.21567 7.10836 5.2349 7.1754Z" fill="white"/>
<path d="M11.9493 6.36097C11.9458 6.36041 11.9421 6.36077 11.9387 6.36203C11.9387 6.36203 11.3554 6.77678 11.341 6.79146C11.283 6.84274 11.3121 7.02354 11.341 7.00271C11.3829 7.01873 11.9699 6.62081 11.9587 6.57435C11.9843 6.57568 11.9969 6.36951 11.9493 6.36097ZM13.0216 5.41531C13.0421 5.47834 12.9903 5.68157 13.0331 5.70026C13.0723 5.72136 13.1273 5.55979 13.1479 5.4105C13.1591 5.32879 13.0988 5.04196 12.9959 4.99069C12.9878 4.98851 12.9795 4.98726 12.9711 4.98695C12.9124 4.98481 12.8483 5.02941 12.8736 5.11701C12.8587 5.16481 12.9989 5.32665 13.0216 5.41531ZM11.6211 6.36577C11.6233 6.24747 11.6348 6.0899 11.6412 5.99189C11.6438 5.95504 11.6526 5.91418 11.6879 5.90483C11.7234 5.89548 11.7848 5.94035 11.7854 5.90189C11.779 5.82658 11.7637 5.71549 11.7213 5.66287C11.7106 5.64749 11.6966 5.63482 11.6801 5.62587C11.6637 5.61692 11.6454 5.61194 11.6267 5.61133C11.565 5.6084 11.4991 5.64845 11.4823 5.73284C11.4825 5.78252 11.5047 5.81002 11.5004 5.85516C11.494 5.88106 11.4673 5.89789 11.4037 5.86771C11.4136 5.85863 11.3626 5.78652 11.3626 5.78652C11.3132 5.75635 11.247 5.78813 11.204 5.81617C11.1885 5.84552 11.1793 5.87773 11.1768 5.91081C11.1743 5.94389 11.1787 5.97712 11.1896 6.00845C11.2609 6.13957 11.5047 6.36364 11.6211 6.36577ZM9.14096 7.13837L9.14203 7.1373L9.1431 7.13624L9.14416 7.13517V7.1333C9.1444 7.13006 9.14404 7.1268 9.1431 7.12368L9.08755 7.0911L7.99475 7.0863C7.98417 7.0827 7.97419 7.07757 7.9651 7.07107L7.96323 7.0692L7.96243 7.06814L7.96136 7.06707L7.96056 7.0652L7.95949 7.06413V7.06306L7.95843 7.06199V7.05345L7.95949 7.05238L7.96056 7.05051C7.9659 7.0433 7.97872 7.03662 7.99501 7.03048C8.25593 6.99496 8.71954 6.91885 8.75025 6.47313C8.74545 6.24079 8.65091 6.08883 8.36596 6.04664C8.15658 6.06293 8.0073 6.26536 8.03133 6.48835C8.02145 6.54844 8.05163 6.66621 7.99021 6.67957C7.58855 6.71615 7.15004 6.96799 7.13535 7.14799H7.13428L7.13322 7.14906L7.13135 7.15012H7.12948L7.12654 7.15119H7.12093C7.11967 7.15087 7.11843 7.15051 7.11719 7.15012C7.09102 7.14291 7.05737 7.09965 7.06271 7.03929C7.04749 6.7279 6.94601 6.37565 6.78738 6.10432C6.73076 6.04771 6.70592 6.02474 6.6899 6.02207H6.68215C6.68055 6.0226 6.67895 6.02394 6.67735 6.02501L6.67441 6.02688C6.66212 6.03622 6.6477 6.05732 6.61512 6.08029C6.56038 6.14251 6.5505 6.18604 6.55397 6.31076C6.55717 6.32385 6.65785 6.60426 6.74331 6.80134C6.801 7.00618 6.85414 7.24066 6.81515 7.46205C6.68028 7.75474 6.40922 8.01726 6.14777 8.16014C6.01451 8.20287 5.89941 8.18818 5.86869 8.15907L5.86763 8.158C5.84236 8.14049 5.82221 8.11656 5.80925 8.08868C5.7963 8.0608 5.79101 8.02997 5.79392 7.99937V7.9983L5.79499 7.99723C6.01558 7.84341 6.26795 7.71896 6.4653 7.30395C6.52352 7.14532 6.54141 7.04998 6.48346 6.80482C6.46076 6.71348 6.43299 6.63817 6.37076 6.57354L6.37183 6.57248C6.40949 6.55458 6.50696 6.62642 6.52192 6.58102C6.49895 6.46405 6.41964 6.30675 6.32964 6.22637C6.25112 6.15506 6.1654 6.14678 6.09356 6.21195C6.01237 6.25708 5.99528 6.41918 6.03427 6.56099C6.07753 6.66782 6.19477 6.68651 6.2781 6.90149V6.90256C6.27996 6.91591 6.30667 7.06306 6.26474 7.12235C6.23056 7.22864 5.79285 7.57394 5.76187 7.59478C5.76093 7.59546 5.75995 7.59608 5.75893 7.59664L5.75787 7.59771L5.7568 7.59878L5.75573 7.59985H5.75359L5.75279 7.59878V7.59771L5.75172 7.59584C5.75039 7.5873 5.75279 7.5654 5.75172 7.52988C5.74879 7.46525 5.77549 7.3189 5.77362 7.2938V7.29273L5.77282 7.29166V7.2906H5.77175C5.62701 7.38407 5.5792 7.67062 5.55277 7.75528C5.18636 8.00845 4.77028 8.19672 4.53073 8.45337C4.40602 8.64832 5.39066 8.22957 5.50496 8.17883L5.5079 8.18177C5.52953 8.20581 5.5314 8.28913 5.59683 8.36444C5.69911 8.50304 5.91677 8.5885 6.12854 8.53562C6.48346 8.40743 6.68803 8.16521 6.89634 7.89682C6.92598 7.85355 6.97271 7.81937 7.01598 7.85275C7.15912 8.17322 7.57173 8.40102 8.10504 8.42453C8.22842 8.27444 8.1694 8.20073 8.11946 8.16922C8.10397 8.15907 7.85427 8.06159 7.81528 7.96465C7.79098 7.87438 7.85027 7.79427 7.96911 7.73418C8.31148 7.69279 8.64824 7.64685 8.97405 7.5419C8.97725 7.4324 9.04188 7.2687 9.08488 7.19766C9.11452 7.15012 9.13375 7.14532 9.14096 7.13837ZM8.23964 6.45203C8.24049 6.44869 8.24174 6.44546 8.24338 6.44242C8.24391 6.44135 8.24445 6.43948 8.24525 6.43868L8.24605 6.43761C8.24751 6.43588 8.24912 6.43427 8.25085 6.4328C8.25898 6.42685 8.26859 6.42325 8.27863 6.42239C8.30868 6.42139 8.33835 6.42938 8.36382 6.44536C8.40735 6.47046 8.43406 6.50865 8.43085 6.53616V6.53909L8.42898 6.54203L8.42791 6.54497L8.42685 6.54684L8.42578 6.54871C8.4242 6.55117 8.42232 6.55341 8.42017 6.55538C8.39934 6.57488 8.351 6.57221 8.30534 6.54577C8.26207 6.52093 8.23563 6.48248 8.2383 6.45497C8.23884 6.45417 8.23964 6.45283 8.23964 6.45203ZM7.80273 7.5467C7.68549 7.58676 7.57279 7.61828 7.57226 7.78759C7.58775 7.87145 7.58428 7.91551 7.57146 7.93581L7.56772 7.94062L7.56665 7.94168L7.56558 7.94275L7.56478 7.94382L7.56371 7.94489L7.56184 7.94596C7.55997 7.9471 7.55801 7.94808 7.55597 7.94889L7.55036 7.94996C7.52259 7.95397 7.48199 7.92753 7.45182 7.91177C7.37944 7.85996 7.17675 7.73418 7.14764 7.46418C7.14363 7.4033 7.18903 7.35068 7.26247 7.34561H7.27476C7.39654 7.37873 7.576 7.3822 7.73169 7.39822C7.85881 7.40543 7.92157 7.50504 7.80273 7.5467Z" fill="white"/>
<path d="M7.4355 6.49014C7.56128 6.55023 7.86119 6.51471 7.78828 6.32083C7.78705 6.28925 7.78482 6.25773 7.78161 6.22629C7.76879 6.19638 7.74502 6.18516 7.72232 6.1889C7.69962 6.19291 7.67772 6.2116 7.66971 6.24231C7.66464 6.26261 7.67932 6.29626 7.66116 6.30641C7.65075 6.31709 7.60989 6.31095 7.61149 6.25486C7.61149 6.23697 7.59841 6.21748 7.59039 6.20599C7.58238 6.20065 7.57811 6.19932 7.56369 6.19932C7.54606 6.20012 7.54553 6.20466 7.53591 6.21935C7.53191 6.2343 7.5263 6.24926 7.5263 6.26608C7.52416 6.28611 7.51722 6.29279 7.50253 6.29572C7.48624 6.29572 7.48998 6.29759 7.47663 6.28905C7.46862 6.2805 7.45847 6.27703 7.45847 6.26234C7.45865 6.24547 7.45603 6.22869 7.45072 6.21267C7.44378 6.20359 7.43176 6.19958 7.41921 6.19638C7.35058 6.19665 7.3463 6.27463 7.35031 6.30454C7.34523 6.31015 7.34176 6.45115 7.4355 6.49014ZM11.9758 11.7213C11.9007 11.7325 11.6897 11.7539 11.6897 11.7539C11.4459 11.7248 11.267 11.7218 10.9927 11.7117C11.0181 11.6796 11.0627 11.5493 11.0079 11.5023C10.9938 11.4905 10.9724 11.4839 10.943 11.486H10.9401L10.939 11.4849L10.9361 11.4839C10.9343 11.4825 10.9327 11.4809 10.9313 11.4791L10.9294 11.4772C10.9155 11.4569 10.9081 11.4075 10.8987 11.3949L10.8976 11.3939L10.8968 11.3928L10.895 11.3917H10.8928L10.892 11.3925C10.7107 11.439 10.7163 11.6273 10.8327 11.7101C8.91767 11.7101 5.97843 11.6775 5.34817 11.6775C4.99565 11.6775 3.87989 11.6353 3.85852 11.6353C4.0978 11.9851 4.44445 12.0564 4.89791 12.0637C5.74849 12.0637 9.69001 12.0532 10.8117 12.0532C10.7318 12.1948 10.8189 12.4226 10.8814 12.4645L10.8862 12.4674C10.8886 12.4685 10.8915 12.4698 10.8939 12.4704H10.8968C10.9711 12.488 11.0037 12.4341 11.0288 12.3948C11.1492 12.4055 11.8273 12.4151 11.8892 12.3937L11.8903 12.3927C11.9322 12.4544 11.9739 12.5128 12.0537 12.5027C12.1934 12.4728 12.3037 12.4576 12.3072 12.1737C12.3074 12.1745 12.293 11.6911 11.9758 11.7213ZM11.839 12.2396L11.8342 12.2415H11.8267L11.5925 12.2348C11.5926 12.2303 11.592 12.2258 11.5907 12.2215C11.569 12.1577 11.4131 12.1619 11.3765 12.2119L11.3746 12.2148L11.3727 12.2185L11.3709 12.2234L11.3698 12.23C11.3695 12.2324 11.3687 12.2354 11.3687 12.2378C11.2462 12.2525 11.1356 12.2338 11.013 12.2292C10.977 12.1844 10.9812 12.1034 11.0234 12.0839H11.0242C11.3036 12.0976 11.5661 12.0866 11.8457 12.1002C11.89 12.1376 11.8679 12.2239 11.839 12.2396ZM8.55848 8.35768C8.55848 8.36249 8.60762 8.40468 8.66557 8.37103C8.78762 8.32457 8.86373 8.27917 9.03465 8.24205C9.07951 8.24124 9.07684 8.12107 9.00607 8.1168C8.9134 8.12134 8.82794 8.12614 8.73554 8.19905C8.67866 8.21213 8.66878 8.17742 8.65622 8.14644C8.6418 8.06926 8.6888 8.01505 8.67919 7.95709C8.68186 7.95977 8.65035 7.93146 8.61029 7.92932C8.59572 7.9284 8.58116 7.93135 8.56809 7.93787C8.56516 7.93787 8.43937 8.02306 8.39878 8.08234C8.37394 8.10104 8.37688 8.1176 8.38436 8.15018C8.40359 8.19451 8.4375 8.18062 8.47623 8.15979C8.5275 8.15285 8.55207 8.18623 8.54807 8.24765C8.5243 8.32457 8.55848 8.35288 8.55848 8.35768ZM12.7809 8.32724C12.7572 8.3 12.7032 8.31629 12.6672 8.31201C12.6501 8.31201 12.5935 8.30374 12.6204 8.2538C12.6429 8.22282 12.6511 8.20412 12.6664 8.16593C12.6835 8.12855 12.6685 8.10318 12.6071 8.08288C12.5822 8.07783 12.5569 8.07559 12.5315 8.0762C12.5088 8.077 12.4848 8.07994 12.4503 8.08288C12.4129 8.09089 12.3998 8.10718 12.3929 8.15258C12.3956 8.22148 12.4378 8.21801 12.4808 8.24525C12.5059 8.27703 12.5219 8.30587 12.4789 8.35795C12.438 8.39534 12.4089 8.41617 12.3681 8.45356C12.3488 8.4864 12.3368 8.53715 12.3958 8.5529C12.5048 8.58361 12.7572 8.41964 12.7572 8.41617C12.798 8.38546 12.7844 8.32724 12.7809 8.32724ZM10.8314 8.00143C10.919 8.00196 11.0205 7.80087 11.0638 7.60164C11.0875 7.32737 11.048 7.16046 11.0408 6.99916C11.0336 6.83785 10.8584 5.53007 10.8229 5.40802C10.7799 5.17728 10.9935 5.37758 10.97 5.24351C10.8963 5.07447 10.712 4.82824 10.6546 4.68136C10.633 4.6421 10.6303 4.60551 10.6124 4.60872C10.6017 4.61059 10.586 4.62688 10.5569 4.66507C10.485 4.90034 10.4597 5.09263 10.4872 5.23871C10.6722 6.20412 10.8616 7.08301 10.8314 8.00143Z" fill="white"/>
<path d="M13.5648 5.44738C13.5566 5.38649 13.5296 5.24655 13.54 5.22839C13.5568 5.18566 13.641 5.23266 13.6711 5.18352C13.7152 5.13866 13.4532 4.80296 13.3613 4.65955C13.3429 4.6235 13.3317 4.59386 13.3154 4.59546C13.3029 4.5968 13.2874 4.61709 13.2639 4.66703C13.207 4.75997 13.1875 4.92635 13.2102 5.07349C13.3469 5.99752 13.4484 6.89243 13.4692 7.7115C13.4575 7.78921 13.454 7.83061 13.4177 7.92862C13.337 8.03197 13.2481 8.16149 13.1643 8.22398C13.0804 8.28647 12.9023 8.34603 12.8438 8.39223C12.659 8.49905 12.6579 8.62217 12.8075 8.62644C13.0652 8.59653 13.3699 8.57543 13.5801 8.25843C13.6362 8.1695 13.7024 7.92862 13.7053 7.7812C13.7251 6.917 13.6944 6.07203 13.5648 5.44738ZM11.8615 7.48717C11.9008 7.50827 12.0039 7.38141 12.0002 7.22225C12.0116 7.14053 11.971 6.83928 11.8682 6.78801C11.856 6.78475 11.8434 6.78376 11.8308 6.78507C11.7772 6.79175 11.7261 6.84249 11.7497 6.92367C11.735 6.97148 11.8226 7.13812 11.8453 7.22679C11.8658 7.29008 11.8191 7.46821 11.8615 7.48717ZM3.74671 4.92821C3.8725 4.9883 4.10858 4.96293 4.0987 4.75997C4.09772 4.7284 4.09576 4.69687 4.09282 4.66543C4.08 4.63552 4.0565 4.6243 4.0338 4.62831C4.0111 4.63231 3.9892 4.65101 3.98119 4.68172C3.97612 4.70202 3.99 4.73567 3.97158 4.74581C3.96116 4.7565 3.9211 4.74929 3.9227 4.6932C3.9227 4.67531 3.90962 4.65662 3.90161 4.6454C3.8936 4.64033 3.88825 4.63872 3.87383 4.63872C3.85621 4.63952 3.85674 4.64406 3.84713 4.65875C3.84285 4.67371 3.83725 4.6884 3.83725 4.70549C3.83511 4.72552 3.8271 4.73219 3.81241 4.73513C3.79612 4.73513 3.79986 4.737 3.7865 4.72846C3.77876 4.71991 3.76941 4.71644 3.76941 4.70175C3.76922 4.68484 3.76634 4.66807 3.76087 4.65208C3.75392 4.643 3.74297 4.63819 3.73015 4.63498C3.66152 4.63525 3.65645 4.7143 3.66045 4.74394C3.65565 4.74929 3.65297 4.88922 3.74671 4.92821ZM5.6479 5.58518C5.62672 5.58486 5.60598 5.59121 5.58861 5.60334C5.47725 5.66343 5.43425 5.84209 5.50342 5.94651C5.56805 6.03864 5.6706 6.00473 5.68422 6.00473C5.79318 6.01835 5.85834 5.80016 5.85834 5.80016C5.85834 5.80016 5.86155 5.73874 5.73202 5.85464C5.67754 5.86479 5.67007 5.84529 5.65645 5.81458C5.64348 5.75717 5.64948 5.69711 5.67354 5.6434C5.68582 5.60948 5.67381 5.58785 5.6479 5.58518ZM10.1743 7.80523C9.97184 8.01648 9.68021 8.27713 9.36242 8.39704C9.32823 8.43549 9.44734 8.59893 9.60143 8.59866C9.85914 8.56875 10.0856 8.42401 10.2955 8.04318C10.3516 7.95425 10.4504 7.76411 10.4533 7.61669C10.4731 6.75249 10.4098 6.08057 10.2803 5.45592C10.272 5.39503 10.2776 5.32319 10.288 5.30477C10.3046 5.28474 10.3612 5.3053 10.3914 5.2559C10.4355 5.21103 10.2739 4.83822 10.182 4.69454C10.1636 4.65849 10.1524 4.62991 10.1361 4.63151C10.1235 4.63285 10.108 4.65234 10.0845 4.70228C10.0279 4.79522 9.9892 4.95706 9.99374 5.10875C10.1166 5.95986 10.1542 6.70442 10.2346 7.55554C10.241 7.63806 10.229 7.75743 10.1743 7.80523ZM3.1672 6.52923C2.86489 6.53484 2.42264 6.92528 2.41089 7.14213C2.72975 6.9891 3.04301 6.84169 3.36696 6.68306C3.31461 6.60507 3.36375 6.53484 3.1672 6.52923ZM2.58127 8.13265C2.50169 8.29395 2.46884 8.18366 2.46163 8.09339C2.44934 7.92247 2.4659 7.76491 2.4846 7.64019C2.49448 7.57637 2.49421 7.55393 2.48646 7.5542C2.47899 7.55447 2.4635 7.57717 2.44347 7.60307C2.26374 7.88936 2.24771 8.31692 2.34679 8.44457C2.3994 8.50493 2.48646 8.53137 2.55056 8.51241C2.66352 8.46353 2.7132 8.23466 2.68622 8.15108C2.64857 8.09179 2.61893 8.08244 2.58127 8.13265Z" fill="white"/>
<path d="M2.61666 6.26824C2.98386 6.30349 2.78117 5.64733 2.91416 5.52822C2.93927 5.46947 2.98573 5.4684 2.98974 5.54264V6.09999C2.98627 6.28133 3.10564 6.33501 3.19831 6.37239C3.29472 6.36492 3.35855 6.36759 3.3962 6.46132C3.41116 6.7826 3.42691 7.10467 3.44214 7.42621C3.44214 7.42621 3.66486 7.4903 3.67554 6.88408C3.68623 6.52809 3.60477 6.22952 3.65258 6.16035C3.65418 6.09225 3.74151 6.08905 3.8016 6.12216C3.89747 6.18999 3.9402 6.27332 4.08949 6.23967C4.31648 6.17717 4.45322 6.06688 4.45669 5.89249C4.44334 5.72691 4.42411 5.56107 4.35254 5.39523C4.36269 5.36505 4.30901 5.2868 4.31916 5.25662C4.36002 5.32045 4.42171 5.31511 4.43586 5.25662C4.39714 5.12924 4.33705 5.00719 4.23984 4.95458C4.15945 4.88381 4.04195 4.89877 3.99895 5.04645C3.97892 5.21657 4.06064 5.41819 4.18456 5.58297C4.211 5.64733 4.24758 5.75442 4.23129 5.85056C4.16533 5.88822 4.10017 5.87246 4.04489 5.81424C4.04489 5.81424 3.86409 5.67884 3.86409 5.64893C3.91216 5.34182 3.8745 5.30683 3.8478 5.22164C3.8291 5.10413 3.77355 5.06675 3.72815 4.98636C3.68302 4.93856 3.6216 4.93856 3.59249 4.98636C3.51264 5.12497 3.55003 5.4222 3.60771 5.5552C3.64937 5.67778 3.71347 5.75415 3.68329 5.75415C3.65845 5.82332 3.60691 5.8073 3.56952 5.72745C3.51638 5.56241 3.50543 5.31645 3.50543 5.20535C3.4894 5.06781 3.47151 4.77405 3.38125 4.69954C3.35721 4.66669 3.32864 4.65521 3.30086 4.65841C3.26534 4.66269 3.23196 4.69153 3.21567 4.73025C3.20785 4.86317 3.21071 4.99651 3.22422 5.12897C3.28617 5.34956 3.30594 5.54371 3.33611 5.76964C3.34439 6.07222 3.16146 5.9005 3.16974 5.75042C3.21193 5.55546 3.20071 5.24888 3.16306 5.1709C3.13315 5.09318 3.0987 5.07396 3.02633 5.08678C2.96891 5.0833 2.82016 5.24514 2.77876 5.51327C2.77876 5.51327 2.74405 5.6508 2.72909 5.77338C2.70879 5.91172 2.61693 6.00973 2.5531 5.75415C2.49782 5.56828 2.4639 5.11054 2.3715 5.21763C2.34453 5.57469 2.31301 6.20361 2.61666 6.26824Z" fill="white"/>
<path d="M2.73392 4.92153C2.75315 4.9696 2.71469 5.12423 2.75502 5.13865C2.79187 5.15467 2.84288 5.03156 2.86211 4.91779C2.87279 4.85557 2.86478 4.64219 2.71977 4.59839C2.71221 4.59672 2.70453 4.59574 2.6968 4.59545C2.64125 4.59385 2.58009 4.6283 2.60413 4.6948C2.59024 4.73138 2.71256 4.85396 2.73392 4.92153ZM4.83113 7.70348C4.96199 7.26764 4.82846 6.93889 4.87226 6.8983L4.87413 6.89723L4.876 6.89616L4.87786 6.89509L4.88347 6.89402C5.04504 7.06815 5.27178 6.91619 5.32145 6.85583C5.34281 6.82566 5.39596 6.80616 5.43335 6.84542C5.5594 6.93595 5.78025 6.89322 5.82646 6.73352C5.85316 6.57729 5.87559 6.41652 5.88093 6.24961C5.79895 6.27498 5.73272 6.29421 5.70601 6.32225C5.69978 6.3286 5.69544 6.33655 5.69346 6.34522L5.67236 6.48382C5.67168 6.48747 5.67042 6.49099 5.66862 6.49424C5.66471 6.50014 5.65951 6.50507 5.6534 6.50866C5.62429 6.52441 5.57382 6.51533 5.57115 6.47341C5.53216 6.29581 5.37139 6.27285 5.27364 6.54792C5.20795 6.60106 5.08831 6.61147 5.07575 6.53162C5.09178 6.34709 5.01727 6.32225 4.86825 6.40931C4.82045 6.04371 4.77291 5.6944 4.72484 5.32879C4.78706 5.32692 4.84395 5.37206 4.90083 5.30102C4.83941 5.10981 4.70935 4.7207 4.63591 4.68438L4.63404 4.68331C4.63091 4.67952 4.62742 4.67603 4.62362 4.6729L4.61882 4.66916L4.61401 4.66622C4.61095 4.66463 4.60773 4.66338 4.6044 4.66248C4.59772 4.66061 4.59131 4.65981 4.58437 4.66061C4.56621 4.66302 4.54591 4.67343 4.52214 4.67877C4.44416 4.70361 4.37099 4.77118 4.39395 4.90257C4.48636 5.46339 4.54644 5.89149 4.63858 6.45258C4.65273 6.51827 4.59772 6.6048 4.52668 6.59599C4.40597 6.51427 4.37606 6.34896 4.17016 6.3559C4.02114 6.35777 3.85102 6.51987 3.82966 6.6761C3.80482 6.80029 3.79601 6.93488 3.82966 7.04331C3.93435 7.16936 4.06013 7.15601 4.17016 7.12743C4.26069 7.09031 4.3352 7.00085 4.36698 7.02221H4.36805V7.02328C4.38781 7.05773 4.36618 7.34962 3.94156 7.57502C3.68064 7.69226 3.47287 7.7203 3.36124 7.50719C3.29207 7.37393 3.36631 6.86705 3.19593 6.98429C2.69173 8.28353 4.37686 8.46513 4.56514 7.0377C4.57742 6.99737 4.61455 6.95705 4.64072 6.96693C4.6522 6.97174 4.66262 6.98749 4.66662 7.0166C4.62763 8.3089 3.36311 8.39756 3.14813 7.99083C3.09498 7.89496 3.07896 7.68184 3.07362 7.55392C3.064 7.47648 3.04451 7.43188 3.02208 7.41425C2.9708 7.3758 2.9019 7.47621 2.88721 7.65033C2.86585 7.79054 2.87199 7.82899 2.87199 7.96386C2.93929 8.98509 4.56647 8.54658 4.83113 7.70348ZM4.20247 6.82031V6.82138C4.20221 6.82192 4.20194 6.82298 4.20141 6.82325C4.18885 6.83954 4.14426 6.83287 4.11248 6.83287C4.07402 6.83126 4.05532 6.82485 4.03209 6.79361C4.02114 6.75889 4.05452 6.72471 4.06948 6.69907L4.07028 6.698C4.07227 6.69523 4.07451 6.69264 4.07696 6.69026C4.09515 6.67479 4.11824 6.66627 4.14212 6.66622C4.17176 6.66649 4.20301 6.68118 4.21957 6.72257C4.22564 6.73891 4.22726 6.75658 4.22426 6.77376C4.22126 6.79093 4.21374 6.807 4.20247 6.82031ZM9.58317 5.84555C9.70895 5.90564 9.9461 5.8792 9.93595 5.67624C9.93471 5.64466 9.93248 5.61313 9.92927 5.5817C9.91645 5.55179 9.89268 5.54057 9.86999 5.54431C9.84729 5.54832 9.82539 5.56781 9.81737 5.59879C9.8123 5.61909 9.82699 5.65167 9.80883 5.66182C9.79841 5.6725 9.75755 5.66636 9.75916 5.61027C9.75916 5.59238 9.74607 5.57289 9.73806 5.5614C9.73005 5.55633 9.72471 5.55472 9.71028 5.55472C9.69266 5.55553 9.69319 5.56007 9.68358 5.57475C9.67957 5.58971 9.67396 5.60466 9.67396 5.62149C9.67183 5.64152 9.66488 5.6482 9.6502 5.65113C9.63391 5.65113 9.63684 5.653 9.62349 5.64446C9.61548 5.63591 9.6064 5.63244 9.6064 5.61775C9.60621 5.60084 9.60332 5.58408 9.59785 5.56808C9.59091 5.559 9.57996 5.55499 9.56714 5.55179C9.49851 5.55205 9.4945 5.63004 9.49824 5.65995C9.4929 5.66582 9.48943 5.80683 9.58317 5.84555ZM9.66809 5.0588C9.71295 5.18458 9.63391 5.30449 9.68064 5.32185C9.72364 5.34135 9.78346 5.19206 9.80589 5.05426C9.8318 4.94263 9.75221 4.71429 9.63951 4.66702C9.63074 4.66509 9.62179 4.66411 9.61281 4.66409C9.54845 4.66222 9.47688 4.70281 9.50465 4.78373C9.48836 4.82753 9.64325 4.97681 9.66809 5.0588Z" fill="white"/>
<path d="M4.9815 5.66394H4.98257L4.98363 5.66501H4.9847L4.98577 5.66608C5.00954 5.6821 5.30411 5.68183 5.33669 5.66714L5.33749 5.66608H5.33856V5.66501C5.43977 5.62762 5.91994 5.07882 5.91994 5.07882C5.8951 5.05745 5.87214 5.04169 5.8473 5.0206C5.8206 4.99763 5.82327 4.97493 5.8473 4.9517C5.96614 4.88253 5.92849 4.7303 5.86653 4.66114C5.8217 4.64026 5.77252 4.63046 5.72312 4.63256C5.68303 4.63474 5.64387 4.64549 5.60828 4.66407C5.52496 4.74393 5.5052 4.87211 5.5709 4.95196C5.63472 4.98214 5.69855 5.0465 5.65609 5.08202C5.47529 5.2751 5.00473 5.59771 4.98096 5.65673L4.98016 5.6586V5.66154L4.98096 5.66341L4.9815 5.66394ZM5.69348 4.80348L5.69908 4.80241C5.72846 4.79947 5.76398 4.82645 5.78134 4.86464C5.79977 4.90523 5.79068 4.94422 5.76024 4.9517C5.73006 4.95917 5.69081 4.9322 5.67238 4.89134C5.65395 4.85075 5.6633 4.81096 5.69348 4.80348ZM8.50186 5.10712C8.71278 5.38948 8.91617 5.67738 9.11182 5.97052C9.14253 6.18951 9.16523 6.40369 9.17966 6.61681C9.21143 7.08442 9.22105 7.66661 9.19221 8.15907C9.2798 8.16254 9.42027 8.01752 9.46941 7.80521C9.50146 7.51145 9.45793 6.91244 9.45499 6.73912C9.45222 6.65655 9.44839 6.57402 9.44351 6.49155C9.68262 6.8822 9.90493 7.28288 10.1098 7.69252C10.1889 7.65486 10.1715 7.20914 10.125 7.14665C9.95119 6.7725 9.7111 6.40316 9.63446 6.26135C9.60695 6.21008 9.51268 6.06693 9.40105 5.90189C9.38048 5.66634 9.35805 5.46685 9.34363 5.4065C9.30784 5.1576 9.44591 5.43454 9.42695 5.28979C9.38208 5.04116 9.24482 4.87211 9.08271 4.64431C9.03037 4.57034 9.03144 4.55511 8.95079 4.66247C8.90245 4.77197 8.90325 4.86303 8.9174 4.94822C8.89085 4.9093 8.86242 4.87169 8.83221 4.83553C8.69227 4.71535 8.68373 4.70894 8.56729 4.61093C8.5307 4.58503 8.461 4.54497 8.40759 4.54977C8.37554 4.55271 8.35017 4.5714 8.34056 4.61867C8.32774 4.72977 8.33442 4.79013 8.35311 4.88253C8.3678 4.94422 8.45753 5.0473 8.50186 5.10712ZM8.94838 5.0903C8.95372 5.11433 8.95906 5.13837 8.9628 5.16294C8.97482 5.21582 8.98524 5.26843 8.99619 5.32077C8.96393 5.27507 8.93018 5.23044 8.89497 5.18697C8.79002 5.06226 8.89711 5.10499 8.94838 5.0903Z" fill="white"/>
<path d="M6.35676 5.98483C6.50364 6.04572 6.59684 5.76611 6.65693 5.45979C6.69806 5.3738 6.72957 5.36392 6.75067 5.40825C6.74533 5.81524 6.77978 5.90631 6.88446 6.02969C7.11787 6.20996 7.31096 6.05239 7.32618 6.03744L7.50778 5.85584C7.54837 5.81338 7.60178 5.8107 7.65893 5.84809C7.71448 5.89857 7.70727 5.98563 7.82638 6.04598C7.92653 6.08604 8.14017 6.0556 8.18985 5.9696C8.25661 5.8553 8.27263 5.81605 8.30361 5.77252C8.35115 5.70922 8.4326 5.73726 8.4326 5.75729C8.42512 5.79254 8.37705 5.82753 8.40963 5.89109C8.46625 5.93355 8.47934 5.90631 8.51299 5.8967C8.63156 5.84008 8.72049 5.58317 8.72049 5.58317C8.72583 5.4873 8.67109 5.49451 8.63637 5.51427C8.59097 5.54204 8.58803 5.55139 8.54263 5.57917C8.48468 5.58771 8.37251 5.6259 8.31696 5.53991C8.26035 5.43656 8.25981 5.29234 8.21655 5.18792C8.21655 5.18045 8.14071 5.02395 8.21094 5.0138C8.24619 5.02048 8.32231 5.03997 8.33432 4.97641C8.37145 4.91446 8.25421 4.739 8.17462 4.65034C8.10546 4.57449 8.00985 4.56514 7.91745 4.64259C7.85255 4.70215 7.86216 4.76864 7.84961 4.83194C7.83306 4.90431 7.83626 4.99431 7.90997 5.09018C7.9746 5.21757 8.0921 5.38127 8.05338 5.61228C8.05338 5.61228 7.98501 5.72231 7.8651 5.70789C7.81516 5.69694 7.73344 5.67531 7.69018 5.3551C7.65733 5.11261 7.69846 4.77318 7.59564 4.61402C7.57241 4.55393 7.55238 4.49571 7.51926 4.50025C7.49923 4.50292 7.47493 4.52856 7.44075 4.59025C7.41644 4.65461 7.31149 4.75235 7.38734 4.95371C7.44929 5.08137 7.47466 5.28861 7.44662 5.51988C7.40363 5.58557 7.39401 5.60827 7.33766 5.6737C7.25861 5.75863 7.17289 5.737 7.10719 5.70522C7.04577 5.66382 6.99743 5.64246 6.96939 5.51107C6.97446 5.30142 6.98675 4.95852 6.94829 4.88561C6.89194 4.77292 6.79874 4.81324 6.75895 4.84742C6.56773 5.02208 6.47346 5.31718 6.41578 5.55219C6.3629 5.72338 6.30628 5.6737 6.26676 5.6048C6.17008 5.51427 6.16341 4.80683 6.0467 4.923C5.85949 5.45712 6.15326 6.04171 6.35676 5.98483Z" fill="white"/>
<path d="M7.18392 4.97553C7.2563 4.78031 7.25656 4.69699 7.26137 4.6142C7.25015 4.55118 7.22265 4.52073 7.19167 4.5234C7.16069 4.52607 7.12597 4.56239 7.09793 4.63236C7.0739 4.68551 7.04425 4.96405 7.04933 4.96405C7.02983 5.04684 7.13559 5.08209 7.18392 4.97553ZM6.42842 4.92987C6.44623 4.91881 6.46155 4.90418 6.47341 4.88689C6.48527 4.86961 6.49341 4.85005 6.49732 4.82945C6.51441 4.74426 6.40758 4.86978 6.39396 4.77497C6.3702 4.68684 6.4383 4.65079 6.50292 4.5656C6.50426 4.52554 6.50506 4.49269 6.47916 4.49189C6.46741 4.49162 6.44951 4.49803 6.42468 4.51299C6.36886 4.55038 6.25777 4.66601 6.25456 4.79874C6.25109 4.87378 6.23693 4.87352 6.28607 4.92105C6.32159 4.97233 6.35684 4.96725 6.42842 4.92987Z" fill="white"/>
</svg>
