<svg width="16" height="17" viewBox="0 0 16 17" fill="none" xmlns="http://www.w3.org/2000/svg">
<g clip-path="url(#clip0_2136_1896)">
<path d="M14.9047 4.47838L14.8929 4.45791C14.8765 4.42388 14.8575 4.39129 14.8364 4.36032L12.6105 0.511998C12.4502 0.23481 12.1517 0.0626221 11.8315 0.0626221H4.1709C3.85019 0.0626221 3.55143 0.235216 3.39115 0.513154L1.12896 4.43772C1.10859 4.4731 1.0939 4.5101 1.08352 4.54769C1.05168 4.63366 1.03418 4.72657 1.03418 4.82351V14.9599C1.03418 15.5679 1.52884 16.0626 2.13684 16.0626H13.8651C14.4731 16.0626 14.9678 15.5679 14.9678 14.9599V4.78635C14.9678 4.77276 14.9674 4.75926 14.9666 4.74582C14.973 4.6556 14.9535 4.56257 14.9047 4.47838ZM8.48594 1.00047H11.8096L13.5606 4.02776H8.48594V1.00047ZM4.19275 1.00047H7.5481V4.02776H2.44774L4.19275 1.00047ZM14.0299 14.96C14.0299 15.0508 13.956 15.1248 13.8651 15.1248H2.13684C2.04596 15.1248 1.97203 15.0508 1.97203 14.96V4.9656H14.0299V14.96Z" fill="#62D0B6"/>
<path d="M10.1282 8.50103C9.94513 8.31793 9.6482 8.31793 9.46507 8.50103L7.37125 10.5948L6.56613 9.78972C6.38303 9.60663 6.08609 9.60663 5.90297 9.78972C5.71984 9.97281 5.71984 10.2698 5.90297 10.4529L7.03972 11.5896C7.13128 11.6811 7.25132 11.7269 7.37128 11.7269C7.49125 11.7269 7.61132 11.6811 7.70285 11.5896L10.1282 9.16419C10.3114 8.98106 10.3114 8.68415 10.1282 8.50103Z" fill="#62D0B6"/>
</g>
<defs>
<clipPath id="clip0_2136_1896">
<rect width="16" height="16" fill="white" transform="translate(0 0.0626221)"/>
</clipPath>
</defs>
</svg>
