<svg width="16" height="17" viewBox="0 0 16 17" fill="none" xmlns="http://www.w3.org/2000/svg">
<g clip-path="url(#clip0_2136_1904)">
<path d="M12.3845 10.025C11.4516 10.025 10.6164 10.4506 10.0622 11.1178L6.45721 9.071C6.56931 8.75553 6.63093 8.41633 6.63093 8.06283C6.63093 7.70941 6.56931 7.37021 6.45721 7.05474L10.0619 5.00748C10.616 5.67483 11.4514 6.10058 12.3844 6.10058C14.0486 6.10058 15.4026 4.7461 15.4026 3.08114C15.4028 1.41668 14.0488 0.0626221 12.3845 0.0626221C10.7201 0.0626221 9.36595 1.41668 9.36595 3.08107C9.36595 3.43457 9.42749 3.77384 9.53967 4.08938L5.93478 6.1367C5.38067 5.46971 4.54551 5.04424 3.61276 5.04424C1.94809 5.04424 0.59375 6.3983 0.59375 8.06276C0.59375 9.72715 1.94809 11.0812 3.61276 11.0812C4.54551 11.0812 5.3806 10.6557 5.93471 9.98882L9.53967 12.0357C9.42749 12.3512 9.36588 12.6905 9.36588 13.0441C9.36588 14.7085 10.72 16.0626 12.3845 16.0626C14.0487 16.0626 15.4027 14.7084 15.4027 13.0441C15.4028 11.3794 14.0488 10.025 12.3845 10.025ZM12.3845 1.11889C13.4664 1.11889 14.3465 1.99911 14.3465 3.08107C14.3465 4.1636 13.4664 5.04424 12.3845 5.04424C11.3025 5.04424 10.4222 4.1636 10.4222 3.08107C10.4222 1.99911 11.3025 1.11889 12.3845 1.11889ZM3.61283 10.025C2.53059 10.025 1.65008 9.14473 1.65008 8.06283C1.65008 6.9808 2.53059 6.10058 3.61283 6.10058C4.69466 6.10058 5.57474 6.9808 5.57474 8.06283C5.57474 9.14473 4.69459 10.025 3.61283 10.025ZM12.3845 15.0064C11.3025 15.0064 10.4222 14.1261 10.4222 13.0442C10.4222 11.9619 11.3025 11.0813 12.3845 11.0813C13.4664 11.0813 14.3465 11.9619 14.3465 13.0442C14.3465 14.1261 13.4664 15.0064 12.3845 15.0064Z" fill="#666666"/>
</g>
<defs>
<clipPath id="clip0_2136_1904">
<rect width="16" height="16" fill="white" transform="translate(0 0.0626221)"/>
</clipPath>
</defs>
</svg>
