<svg width="20" height="16" viewBox="0 0 20 16" fill="none" xmlns="http://www.w3.org/2000/svg">
<path d="M18.8889 2.28584C18.2752 2.28584 17.7778 1.77416 17.7778 1.14298C17.7778 0.511802 18.2752 0.00012207 18.8889 0.00012207C19.5025 0.00012207 20 0.511802 20 1.14298C20 1.77416 19.5025 2.28584 18.8889 2.28584ZM18.8889 9.14298C18.2752 9.14298 17.7778 8.63132 17.7778 8.00012C17.7778 7.36892 18.2752 6.85727 18.8889 6.85727C19.5025 6.85727 20 7.36892 20 8.00012C20 8.63132 19.5025 9.14298 18.8889 9.14298ZM17.7778 14.8573C17.7778 15.4885 18.2752 16.0001 18.8889 16.0001C19.5025 16.0001 20 15.4885 20 14.8573C20 14.2261 19.5025 13.7144 18.8889 13.7144C18.2752 13.7144 17.7778 14.2261 17.7778 14.8573ZM14.4444 0.00012207C15.0581 0.00012207 15.5556 0.511802 15.5556 1.14298C15.5556 1.77416 15.0581 2.28584 14.4444 2.28584H1.11111C0.497444 2.28584 0 1.77416 0 1.14298C0 0.511802 0.497444 0.00012207 1.11111 0.00012207H14.4444ZM15.5556 8.00012C15.5556 7.36892 15.0581 6.85727 14.4444 6.85727H1.11111C0.497444 6.85727 0 7.36892 0 8.00012C0 8.63132 0.497444 9.14298 1.11111 9.14298H14.4444C15.0581 9.14298 15.5556 8.63132 15.5556 8.00012ZM14.4444 13.7144C15.0581 13.7144 15.5556 14.2261 15.5556 14.8573C15.5556 15.4885 15.0581 16.0001 14.4444 16.0001H1.11111C0.497444 16.0001 0 15.4885 0 14.8573C0 14.2261 0.497444 13.7144 1.11111 13.7144H14.4444Z" fill="#A5A5A5"/>
</svg>
