<svg width="18" height="18" viewBox="0 0 18 18" fill="none" xmlns="http://www.w3.org/2000/svg">
<path d="M2 7.00012C1.60444 7.00012 1.21776 7.11742 0.888861 7.33718C0.559963 7.55695 0.303617 7.8693 0.152242 8.23476C0.000866562 8.60021 -0.0387401 9.00234 0.0384303 9.3903C0.115601 9.77827 0.306082 10.1346 0.585787 10.4143C0.865492 10.694 1.22186 10.8845 1.60982 10.9617C1.99778 11.0389 2.39992 10.9993 2.76537 10.8479C3.13082 10.6965 3.44318 10.4402 3.66294 10.1113C3.8827 9.78236 4 9.39569 4 9.00012C4 8.46969 3.78929 7.96098 3.41421 7.58591C3.03914 7.21084 2.53043 7.00012 2 7.00012ZM2 14.0001C1.60444 14.0001 1.21776 14.1174 0.888861 14.3372C0.559963 14.5569 0.303617 14.8693 0.152242 15.2348C0.000866562 15.6002 -0.0387401 16.0023 0.0384303 16.3903C0.115601 16.7783 0.306082 17.1346 0.585787 17.4143C0.865492 17.694 1.22186 17.8845 1.60982 17.9617C1.99778 18.0389 2.39992 17.9993 2.76537 17.8479C3.13082 17.6965 3.44318 17.4402 3.66294 17.1113C3.8827 16.7824 4 16.3957 4 16.0001C4 15.4697 3.78929 14.961 3.41421 14.5859C3.03914 14.2108 2.53043 14.0001 2 14.0001ZM9 4.00012C9.39556 4.00012 9.78224 3.88282 10.1111 3.66306C10.44 3.4433 10.6964 3.13094 10.8478 2.76549C10.9991 2.40004 11.0387 1.9979 10.9616 1.60994C10.8844 1.22198 10.6939 0.865614 10.4142 0.585909C10.1345 0.306204 9.77814 0.115723 9.39018 0.0385524C9.00222 -0.038618 8.60009 0.000988632 8.23463 0.152364C7.86918 0.303739 7.55682 0.560084 7.33706 0.888982C7.1173 1.21788 7 1.60456 7 2.00012C7 2.53056 7.21071 3.03926 7.58579 3.41434C7.96086 3.78941 8.46957 4.00012 9 4.00012ZM2 0.00012291C1.60444 0.00012291 1.21776 0.117421 0.888861 0.337184C0.559963 0.556946 0.303617 0.869304 0.152242 1.23476C0.000866562 1.60021 -0.0387401 2.00234 0.0384303 2.3903C0.115601 2.77827 0.306082 3.13463 0.585787 3.41434C0.865492 3.69404 1.22186 3.88452 1.60982 3.96169C1.99778 4.03886 2.39992 3.99926 2.76537 3.84788C3.13082 3.69651 3.44318 3.44016 3.66294 3.11126C3.8827 2.78236 4 2.39569 4 2.00012C4 1.46969 3.78929 0.960982 3.41421 0.585909C3.03914 0.210836 2.53043 0.00012291 2 0.00012291ZM9 14.0001C8.60444 14.0001 8.21776 14.1174 7.88886 14.3372C7.55996 14.5569 7.30362 14.8693 7.15224 15.2348C7.00087 15.6002 6.96126 16.0023 7.03843 16.3903C7.1156 16.7783 7.30608 17.1346 7.58579 17.4143C7.86549 17.694 8.22186 17.8845 8.60982 17.9617C8.99778 18.0389 9.39992 17.9993 9.76537 17.8479C10.1308 17.6965 10.4432 17.4402 10.6629 17.1113C10.8827 16.7824 11 16.3957 11 16.0001C11 15.4697 10.7893 14.961 10.4142 14.5859C10.0391 14.2108 9.53043 14.0001 9 14.0001ZM9 7.00012C8.60444 7.00012 8.21776 7.11742 7.88886 7.33718C7.55996 7.55695 7.30362 7.8693 7.15224 8.23476C7.00087 8.60021 6.96126 9.00234 7.03843 9.3903C7.1156 9.77827 7.30608 10.1346 7.58579 10.4143C7.86549 10.694 8.22186 10.8845 8.60982 10.9617C8.99778 11.0389 9.39992 10.9993 9.76537 10.8479C10.1308 10.6965 10.4432 10.4402 10.6629 10.1113C10.8827 9.78236 11 9.39569 11 9.00012C11 8.46969 10.7893 7.96098 10.4142 7.58591C10.0391 7.21084 9.53043 7.00012 9 7.00012Z" fill="white"/>
<path d="M16 4.00012C16.3956 4.00012 16.7822 3.88282 17.1111 3.66306C17.44 3.4433 17.6964 3.13094 17.8478 2.76549C17.9991 2.40004 18.0387 1.9979 17.9616 1.60994C17.8844 1.22198 17.6939 0.865614 17.4142 0.585909C17.1345 0.306204 16.7781 0.115723 16.3902 0.0385524C16.0022 -0.038618 15.6001 0.000988632 15.2346 0.152364C14.8692 0.303739 14.5568 0.560084 14.3371 0.888982C14.1173 1.21788 14 1.60456 14 2.00012C14 2.53056 14.2107 3.03926 14.5858 3.41434C14.9609 3.78941 15.4696 4.00012 16 4.00012ZM16 14.0001C15.6044 14.0001 15.2178 14.1174 14.8889 14.3372C14.56 14.5569 14.3036 14.8693 14.1522 15.2348C14.0009 15.6002 13.9613 16.0023 14.0384 16.3903C14.1156 16.7783 14.3061 17.1346 14.5858 17.4143C14.8655 17.694 15.2219 17.8845 15.6098 17.9617C15.9978 18.0389 16.3999 17.9993 16.7654 17.8479C17.1308 17.6965 17.4432 17.4402 17.6629 17.1113C17.8827 16.7824 18 16.3957 18 16.0001C18 15.4697 17.7893 14.961 17.4142 14.5859C17.0391 14.2108 16.5304 14.0001 16 14.0001ZM16 7.00012C15.6044 7.00012 15.2178 7.11742 14.8889 7.33718C14.56 7.55695 14.3036 7.8693 14.1522 8.23476C14.0009 8.60021 13.9613 9.00234 14.0384 9.3903C14.1156 9.77827 14.3061 10.1346 14.5858 10.4143C14.8655 10.694 15.2219 10.8845 15.6098 10.9617C15.9978 11.0389 16.3999 10.9993 16.7654 10.8479C17.1308 10.6965 17.4432 10.4402 17.6629 10.1113C17.8827 9.78236 18 9.39569 18 9.00012C18 8.46969 17.7893 7.96098 17.4142 7.58591C17.0391 7.21084 16.5304 7.00012 16 7.00012Z" fill="white"/>
</svg>
