<svg width="16" height="15" viewBox="0 0 16 15" fill="none" xmlns="http://www.w3.org/2000/svg">
<path d="M15.351 11.0611C13.3055 10.7245 12.3837 8.62931 12.3464 8.54038L12.3378 8.52317C12.2336 8.31088 12.2087 8.13589 12.2661 8.00297C12.378 7.74095 12.8064 7.60517 13.0894 7.51528C13.1717 7.48946 13.2491 7.4646 13.3132 7.43974C13.5924 7.32977 13.7913 7.21024 13.9233 7.0754C14.0801 6.9138 14.1107 6.75889 14.1088 6.65848C14.104 6.41368 13.9166 6.19565 13.6173 6.08951C13.5114 6.04735 13.3984 6.02592 13.2845 6.0264C13.1779 6.0249 13.0722 6.04643 12.9747 6.08951C12.7356 6.20139 12.5214 6.26259 12.3369 6.2712C12.2642 6.26916 12.1925 6.25359 12.1255 6.2253L12.1437 5.92982L12.1466 5.88583C12.2125 4.85021 12.2938 3.56214 11.9515 2.79714C11.7312 2.293 11.413 1.83762 11.0153 1.45744C10.6873 1.14878 10.3085 0.899039 9.89555 0.71921C9.34433 0.478719 8.74987 0.353124 8.14848 0.350098L8.11023 0.350098L7.84726 0.352966C7.50779 0.352966 6.8279 0.400779 6.09828 0.722079C5.68655 0.901615 5.30899 1.15105 4.98233 1.45935C4.58661 1.83927 4.26977 2.29356 4.04999 2.79619C3.70765 3.56023 3.78893 4.8483 3.85396 5.88296V5.88487L3.875 6.22434C3.7957 6.25737 3.71033 6.27333 3.62446 6.2712C3.4313 6.2712 3.2018 6.21 2.94265 6.08855C2.86121 6.05202 2.77276 6.03374 2.68351 6.035C2.52221 6.03664 2.3642 6.08085 2.22546 6.16314C2.0476 6.26737 1.93285 6.41368 1.9013 6.5772C1.88121 6.6843 1.88217 6.89754 2.11932 7.11365C2.25033 7.23223 2.44158 7.3422 2.68925 7.43974C2.75427 7.46555 2.83173 7.48946 2.91301 7.51528C3.19606 7.60517 3.62541 7.74095 3.7373 8.00297C3.79371 8.13589 3.76885 8.31088 3.66462 8.52317L3.65697 8.54038C3.45726 8.97175 3.1978 9.37285 2.88623 9.73187C2.61742 10.0486 2.30438 10.3249 1.95676 10.5523C1.56134 10.8098 1.11694 10.9827 0.651476 11.0601C0.564261 11.0742 0.485366 11.1201 0.430071 11.189C0.374777 11.2579 0.347018 11.3448 0.35217 11.433C0.355039 11.4856 0.36747 11.5382 0.389464 11.5889V11.5899C0.463095 11.761 0.632351 11.9054 0.907751 12.0326C1.24435 12.1885 1.74734 12.3195 2.40428 12.4218C2.43775 12.4849 2.47218 12.6427 2.49608 12.7507C2.52095 12.8655 2.54676 12.9841 2.58406 13.1093C2.62422 13.2451 2.7275 13.4077 2.99429 13.4077C3.09565 13.4077 3.21136 13.3847 3.34619 13.3589C3.54318 13.3207 3.81284 13.2681 4.14848 13.2681C4.33495 13.2681 4.52811 13.2843 4.72223 13.3168C5.09708 13.379 5.4203 13.6066 5.79419 13.8705C6.34116 14.2568 6.96081 14.6938 7.9075 14.6938L7.98496 14.691C8.01556 14.6929 8.05476 14.6938 8.09493 14.6938C9.04161 14.6938 9.66126 14.2568 10.2082 13.8715L10.2092 13.8705C10.5831 13.6075 10.9063 13.38 11.2812 13.3178C11.4753 13.2853 11.6684 13.269 11.8549 13.269C12.1762 13.269 12.4306 13.3102 12.6572 13.3541C12.8054 13.3828 12.9202 13.3972 13.0091 13.3972H13.0263C13.1156 13.4011 13.2036 13.3741 13.2752 13.3205C13.3469 13.267 13.3978 13.1904 13.4193 13.1036C13.4529 12.9861 13.4823 12.8675 13.5073 12.7479C13.5293 12.6465 13.5656 12.484 13.5981 12.4208C14.2551 12.3176 14.7581 12.1875 15.0947 12.0316C15.3691 11.9045 15.5384 11.7601 15.612 11.5899C15.6341 11.54 15.6471 11.4865 15.6503 11.4321C15.6551 11.3442 15.6272 11.2576 15.5719 11.189C15.5167 11.1205 15.4379 11.0749 15.351 11.0611Z" fill="#A5A5A5"/>
</svg>
