<svg width="16" height="12" viewBox="0 0 16 12" fill="none" xmlns="http://www.w3.org/2000/svg">
<path d="M15.0807 1.60836C14.5483 1.83934 13.9852 1.99204 13.4091 2.06169C14.0169 1.69855 14.4725 1.12725 14.6911 0.453776C14.1199 0.793821 13.4946 1.0334 12.8424 1.16211C12.4064 0.689348 11.8259 0.374653 11.1918 0.26738C10.5578 0.160106 9.90603 0.266322 9.33883 0.569369C8.77163 0.872416 8.32106 1.35515 8.05777 1.94187C7.79449 2.52859 7.73339 3.18609 7.88406 3.81128C6.72907 3.75286 5.59929 3.45212 4.56811 2.9286C3.53693 2.40507 2.62741 1.67048 1.89865 0.772526C1.64303 1.2189 1.50872 1.7244 1.50906 2.23878C1.50816 2.71646 1.62538 3.18696 1.85031 3.60838C2.07523 4.02981 2.40087 4.38907 2.79823 4.65419C2.33638 4.64163 1.8844 4.5177 1.48073 4.29294V4.32836C1.48419 4.99766 1.71873 5.64522 2.14466 6.1615C2.5706 6.67779 3.16179 7.03111 3.81823 7.16169C3.56553 7.23859 3.30318 7.27914 3.03906 7.28211C2.85623 7.27997 2.67386 7.26339 2.49365 7.23253C2.68058 7.80827 3.04234 8.31142 3.52857 8.67197C4.01481 9.03252 4.60135 9.23254 5.20656 9.24419C4.18458 10.0483 2.92281 10.4872 1.6224 10.4909C1.38562 10.4916 1.14904 10.4774 0.914062 10.4484C2.24178 11.3056 3.78905 11.7607 5.36948 11.7588C6.46009 11.7701 7.54203 11.564 8.5521 11.1525C9.56217 10.741 10.4801 10.1324 11.2523 9.36213C12.0245 8.59189 12.6355 7.67551 13.0496 6.6665C13.4637 5.65749 13.6726 4.57608 13.6641 3.48544C13.6641 3.36503 13.6641 3.23753 13.6641 3.11003C14.2199 2.69552 14.6993 2.18737 15.0807 1.60836V1.60836Z" fill="#A5A5A5"/>
</svg>
